<svg width="430" height="430" viewBox="0 0 430 430" fill="none" xmlns="http://www.w3.org/2000/svg">
<path d="M214.922 0C96.195 0 0 96.195 0 214.922C0 333.649 96.195 429.844 214.922 429.844C333.649 429.844 429.844 333.649 429.844 214.922C429.844 96.195 333.649 0 214.922 0ZM214.922 388.246C119.334 388.246 41.5978 310.51 41.5978 214.922C41.5978 119.334 119.334 41.5978 214.922 41.5978C310.51 41.5978 388.246 119.334 388.246 214.922C388.246 310.51 310.51 388.246 214.922 388.246ZM214.922 263.453C185.804 263.453 158.418 276.279 139.699 298.638C132.333 307.477 133.546 320.563 142.386 327.93C151.225 335.296 164.311 334.169 171.678 325.33C193.17 299.591 236.674 299.591 258.167 325.33C265.186 333.736 278.272 335.642 287.458 327.93C296.298 320.563 297.424 307.477 290.145 298.638C271.426 276.279 244.041 263.453 214.922 263.453ZM173.324 201.056C182.25 201.056 190.57 195.25 193.257 186.237C196.55 175.231 190.31 163.618 179.304 160.325L109.974 139.526C98.8815 136.146 87.3554 142.473 84.0623 153.479C80.7691 164.485 87.0088 176.097 98.0149 179.391L122.454 186.757C119.767 191.003 117.861 195.77 117.861 201.143C117.861 216.482 130.253 228.875 145.592 228.875C160.932 228.875 173.324 216.395 173.324 201.056ZM345.782 153.479C342.489 142.473 330.963 136.233 319.87 139.526L250.54 160.325C239.534 163.618 233.294 175.231 236.588 186.237C239.274 195.25 247.594 201.056 256.52 201.056C256.52 216.395 268.913 228.788 284.252 228.788C299.591 228.788 311.984 216.395 311.984 201.056C311.984 195.683 310.077 190.917 307.391 186.67L331.829 179.304C342.835 176.097 349.075 164.485 345.782 153.479Z" fill="black"/>
</svg>
