<svg width="272" height="234" viewBox="0 0 272 234" fill="none" xmlns="http://www.w3.org/2000/svg">
<path d="M14.3132 122.172C17.3537 94.5493 29.614 69.6996 47.9524 50.7644L68.6971 71.5077L78.2957 61.9091L57.9284 41.5431C77.4337 25.4186 102.035 15.2332 128.959 13.7599V47.5112H142.534V13.7599C169.458 15.2332 194.059 25.4188 213.565 41.5438L194.021 61.0851L203.619 70.6844L223.541 50.765C241.879 69.7003 254.139 94.5493 257.179 122.172H228.626V135.746H257.918C257.901 165.205 247.451 192.217 230.049 213.304L206.834 190.09L197.235 199.689L220.836 223.289L220.75 223.373L230.193 233.125C255.653 208.471 271.493 173.915 271.493 135.673C271.493 60.7397 210.714 0 135.746 0C60.779 0 0 60.7397 0 135.673C0 172.901 15.0109 206.637 39.2964 231.144L48.9386 221.589C48.8958 221.546 48.8537 221.503 48.811 221.46L69.2082 201.062L59.6096 191.463L39.8019 211.271C23.3867 190.494 13.5913 164.268 13.5746 135.746H41.0816V122.172H14.3132Z" fill="#333333"/>
<path d="M146.824 207.005C144.39 208.1 141.64 208.269 139.09 207.479L51.3521 170.607C38.3714 166.588 41.5987 153.228 55.022 155.338L149.93 160.773C152.567 161.188 154.961 162.551 156.664 164.605L168.335 180.709C170.131 187.693 169.364 190.999 164.394 197.688L146.824 207.005Z" fill="#333333"/>
</svg>
