<svg width="649" height="464" viewBox="0 0 649 464" fill="none" xmlns="http://www.w3.org/2000/svg">
<path d="M127.661 271.43C132.475 227.696 151.887 188.353 180.921 158.373L213.766 191.216L228.963 176.018L196.716 143.774C227.598 118.244 266.548 102.118 309.176 99.7855V153.223H330.668V99.7855C373.296 102.118 412.247 118.245 443.129 143.775L412.186 174.714L427.382 189.912L458.924 158.374C487.958 188.354 507.369 227.696 512.183 271.43H466.975V292.922H513.352C513.325 339.563 496.78 382.331 469.229 415.717L432.473 378.963L417.275 394.16L454.642 431.525L454.505 431.658L469.456 447.098C509.766 408.064 534.844 353.354 534.844 292.806C534.844 174.167 438.615 78 319.922 78C201.229 78 105 174.167 105 292.806C105 351.747 128.766 405.161 167.217 443.962L182.483 428.833C182.415 428.766 182.348 428.698 182.281 428.629L214.575 396.334L199.378 381.137L168.017 412.498C142.027 379.602 126.519 338.079 126.492 292.922H170.043V271.43H127.661Z" fill="#333333"/>
<path d="M80.284 444.456L97.308 424.872L98.524 430.248L81.5 449.768L80.284 444.456ZM89.5 457.768C86.6413 457.768 84.1453 456.979 82.012 455.4C79.9213 453.821 78.3 451.517 77.148 448.488C76.0387 445.416 75.484 441.683 75.484 437.288C75.484 432.936 76.0387 429.203 77.148 426.088C78.3 422.973 79.9213 420.605 82.012 418.984C84.1453 417.32 86.6413 416.488 89.5 416.488C92.3587 416.488 94.8333 417.32 96.924 418.984C99.0573 420.605 100.679 422.973 101.788 426.088C102.94 429.203 103.516 432.936 103.516 437.288C103.516 441.683 102.94 445.416 101.788 448.488C100.679 451.517 99.0573 453.821 96.924 455.4C94.8333 456.979 92.3587 457.768 89.5 457.768ZM89.5 451.688C91.036 451.688 92.2733 451.133 93.212 450.024C94.1933 448.872 94.9187 447.229 95.388 445.096C95.8573 442.963 96.092 440.36 96.092 437.288C96.092 434.216 95.8573 431.613 95.388 429.48C94.9187 427.347 94.1933 425.725 93.212 424.616C92.2733 423.464 91.036 422.888 89.5 422.888C88.0067 422.888 86.7693 423.464 85.788 424.616C84.8067 425.725 84.0813 427.347 83.612 429.48C83.1427 431.613 82.908 434.216 82.908 437.288C82.908 440.36 83.1427 442.963 83.612 445.096C84.0813 447.229 84.8067 448.872 85.788 450.024C86.7693 451.133 88.0067 451.688 89.5 451.688Z" fill="black"/>
<path d="M28.328 293.048C30.8453 290.659 33.064 288.547 34.984 286.712C36.904 284.835 38.568 283.171 39.976 281.72C41.384 280.227 42.536 278.861 43.432 277.624C44.3707 276.344 45.0533 275.107 45.48 273.912C45.9067 272.717 46.12 271.416 46.12 270.008C46.12 269.24 46.0133 268.557 45.8 267.96C45.6293 267.363 45.3307 266.872 44.904 266.488C44.4773 266.061 43.9227 265.741 43.24 265.528C42.6 265.315 41.8107 265.208 40.872 265.208C40.0187 265.208 39.2293 265.293 38.504 265.464C37.7787 265.635 37.096 265.912 36.456 266.296C35.816 266.68 35.2187 267.192 34.664 267.832C34.2373 268.387 33.96 268.813 33.832 269.112C33.7467 269.411 33.7253 269.731 33.768 270.072L33.384 270.648L32.872 270.328L27.368 266.04C28.3493 264.376 29.544 262.989 30.952 261.88C32.4027 260.771 33.9813 259.939 35.688 259.384C37.3947 258.787 39.1653 258.488 41 258.488C43.3467 258.488 45.48 258.957 47.4 259.896C49.3627 260.835 50.92 262.179 52.072 263.928C53.224 265.635 53.8 267.661 53.8 270.008C53.8 271.629 53.5653 273.144 53.096 274.552C52.6693 275.96 52.0507 277.347 51.24 278.712C50.4293 280.035 49.4267 281.4 48.232 282.808C47.0373 284.216 45.672 285.709 44.136 287.288C42.6 288.867 40.8933 290.573 39.016 292.408H50.856C51.5813 292.408 52.0933 292.365 52.392 292.28C52.6907 292.195 52.968 292.045 53.224 291.832H53.864V292.408V299H28.328V293.048ZM63.784 286.456L80.808 266.872L82.024 272.248L65 291.768L63.784 286.456ZM73 299.768C70.1413 299.768 67.6453 298.979 65.512 297.4C63.4213 295.821 61.8 293.517 60.648 290.488C59.5387 287.416 58.984 283.683 58.984 279.288C58.984 274.936 59.5387 271.203 60.648 268.088C61.8 264.973 63.4213 262.605 65.512 260.984C67.6453 259.32 70.1413 258.488 73 258.488C75.8587 258.488 78.3333 259.32 80.424 260.984C82.5573 262.605 84.1787 264.973 85.288 268.088C86.44 271.203 87.016 274.936 87.016 279.288C87.016 283.683 86.44 287.416 85.288 290.488C84.1787 293.517 82.5573 295.821 80.424 297.4C78.3333 298.979 75.8587 299.768 73 299.768ZM73 293.688C74.536 293.688 75.7733 293.133 76.712 292.024C77.6933 290.872 78.4187 289.229 78.888 287.096C79.3573 284.963 79.592 282.36 79.592 279.288C79.592 276.216 79.3573 273.613 78.888 271.48C78.4187 269.347 77.6933 267.725 76.712 266.616C75.7733 265.464 74.536 264.888 73 264.888C71.5067 264.888 70.2693 265.464 69.288 266.616C68.3067 267.725 67.5813 269.347 67.112 271.48C66.6427 273.613 66.408 276.216 66.408 279.288C66.408 282.36 66.6427 284.963 67.112 287.096C67.5813 289.229 68.3067 290.872 69.288 292.024C70.2693 293.133 71.5067 293.688 73 293.688Z" fill="black"/>
<path d="M528.3 447V415.768L521.388 418.392L519.66 412.888L530.412 407.128H536.492V447H528.3ZM554.284 434.456L571.308 414.872L572.524 420.248L555.5 439.768L554.284 434.456ZM563.5 447.768C560.641 447.768 558.145 446.979 556.012 445.4C553.921 443.821 552.3 441.517 551.148 438.488C550.039 435.416 549.484 431.683 549.484 427.288C549.484 422.936 550.039 419.203 551.148 416.088C552.3 412.973 553.921 410.605 556.012 408.984C558.145 407.32 560.641 406.488 563.5 406.488C566.359 406.488 568.833 407.32 570.924 408.984C573.057 410.605 574.679 412.973 575.788 416.088C576.94 419.203 577.516 422.936 577.516 427.288C577.516 431.683 576.94 435.416 575.788 438.488C574.679 441.517 573.057 443.821 570.924 445.4C568.833 446.979 566.359 447.768 563.5 447.768ZM563.5 441.688C565.036 441.688 566.273 441.133 567.212 440.024C568.193 438.872 568.919 437.229 569.388 435.096C569.857 432.963 570.092 430.36 570.092 427.288C570.092 424.216 569.857 421.613 569.388 419.48C568.919 417.347 568.193 415.725 567.212 414.616C566.273 413.464 565.036 412.888 563.5 412.888C562.007 412.888 560.769 413.464 559.788 414.616C558.807 415.725 558.081 417.347 557.612 419.48C557.143 421.613 556.908 424.216 556.908 427.288C556.908 430.36 557.143 432.963 557.612 435.096C558.081 437.229 558.807 438.872 559.788 440.024C560.769 441.133 562.007 441.688 563.5 441.688ZM586.284 434.456L603.308 414.872L604.524 420.248L587.5 439.768L586.284 434.456ZM595.5 447.768C592.641 447.768 590.145 446.979 588.012 445.4C585.921 443.821 584.3 441.517 583.148 438.488C582.039 435.416 581.484 431.683 581.484 427.288C581.484 422.936 582.039 419.203 583.148 416.088C584.3 412.973 585.921 410.605 588.012 408.984C590.145 407.32 592.641 406.488 595.5 406.488C598.359 406.488 600.833 407.32 602.924 408.984C605.057 410.605 606.679 412.973 607.788 416.088C608.94 419.203 609.516 422.936 609.516 427.288C609.516 431.683 608.94 435.416 607.788 438.488C606.679 441.517 605.057 443.821 602.924 445.4C600.833 446.979 598.359 447.768 595.5 447.768ZM595.5 441.688C597.036 441.688 598.273 441.133 599.212 440.024C600.193 438.872 600.919 437.229 601.388 435.096C601.857 432.963 602.092 430.36 602.092 427.288C602.092 424.216 601.857 421.613 601.388 419.48C600.919 417.347 600.193 415.725 599.212 414.616C598.273 413.464 597.036 412.888 595.5 412.888C594.007 412.888 592.769 413.464 591.788 414.616C590.807 415.725 590.081 417.347 589.612 419.48C589.143 421.613 588.908 424.216 588.908 427.288C588.908 430.36 589.143 432.963 589.612 435.096C590.081 437.229 590.807 438.872 591.788 440.024C592.769 441.133 594.007 441.688 595.5 441.688Z" fill="black"/>
<path d="M569 299.768C566.269 299.768 563.88 299.299 561.832 298.36C559.784 297.379 558.205 296.056 557.096 294.392C555.987 292.685 555.432 290.787 555.432 288.696C555.432 286.904 555.731 285.347 556.328 284.024C556.968 282.701 557.843 281.507 558.952 280.44C560.061 279.373 561.32 278.456 562.728 277.688C561.661 277.005 560.701 276.195 559.848 275.256C559.037 274.317 558.397 273.293 557.928 272.184C557.501 271.075 557.288 269.944 557.288 268.792C557.288 266.829 557.779 265.08 558.76 263.544C559.784 261.965 561.192 260.728 562.984 259.832C564.819 258.893 566.952 258.424 569.384 258.424C571.901 258.424 574.035 258.872 575.784 259.768C577.576 260.621 578.941 261.816 579.88 263.352C580.819 264.845 581.288 266.531 581.288 268.408C581.288 269.517 581.181 270.541 580.968 271.48C580.755 272.419 580.413 273.293 579.944 274.104C579.475 274.872 578.92 275.597 578.28 276.28C577.683 276.963 576.979 277.56 576.168 278.072C577.192 278.584 578.109 279.224 578.92 279.992C579.773 280.76 580.456 281.592 580.968 282.488C581.523 283.384 581.928 284.344 582.184 285.368C582.483 286.349 582.632 287.395 582.632 288.504C582.632 290.68 582.056 292.621 580.904 294.328C579.795 296.035 578.216 297.379 576.168 298.36C574.12 299.299 571.731 299.768 569 299.768ZM569.128 293.112C570.365 293.112 571.389 292.899 572.2 292.472C573.011 292.003 573.629 291.384 574.056 290.616C574.483 289.848 574.696 288.952 574.696 287.928C574.696 287.117 574.525 286.371 574.184 285.688C573.885 284.963 573.416 284.301 572.776 283.704C572.179 283.064 571.453 282.509 570.6 282.04C569.747 281.571 568.808 281.144 567.784 280.76C567.101 281.187 566.483 281.656 565.928 282.168C565.416 282.637 564.968 283.149 564.584 283.704C564.2 284.259 563.901 284.877 563.688 285.56C563.475 286.2 563.368 286.925 563.368 287.736C563.368 288.76 563.603 289.677 564.072 290.488C564.541 291.299 565.203 291.939 566.056 292.408C566.909 292.877 567.933 293.112 569.128 293.112ZM570.408 275.64C570.963 275.213 571.432 274.744 571.816 274.232C572.243 273.72 572.584 273.187 572.84 272.632C573.139 272.077 573.331 271.501 573.416 270.904C573.544 270.307 573.608 269.709 573.608 269.112C573.608 268.301 573.416 267.597 573.032 267C572.691 266.403 572.179 265.933 571.496 265.592C570.856 265.208 570.088 265.016 569.192 265.016C568.296 265.016 567.528 265.187 566.888 265.528C566.291 265.869 565.821 266.339 565.48 266.936C565.139 267.533 564.968 268.195 564.968 268.92C564.968 269.688 565.096 270.392 565.352 271.032C565.651 271.629 566.035 272.205 566.504 272.76C567.016 273.315 567.592 273.827 568.232 274.296C568.915 274.765 569.64 275.213 570.408 275.64ZM591.784 286.456L608.808 266.872L610.024 272.248L593 291.768L591.784 286.456ZM601 299.768C598.141 299.768 595.645 298.979 593.512 297.4C591.421 295.821 589.8 293.517 588.648 290.488C587.539 287.416 586.984 283.683 586.984 279.288C586.984 274.936 587.539 271.203 588.648 268.088C589.8 264.973 591.421 262.605 593.512 260.984C595.645 259.32 598.141 258.488 601 258.488C603.859 258.488 606.333 259.32 608.424 260.984C610.557 262.605 612.179 264.973 613.288 268.088C614.44 271.203 615.016 274.936 615.016 279.288C615.016 283.683 614.44 287.416 613.288 290.488C612.179 293.517 610.557 295.821 608.424 297.4C606.333 298.979 603.859 299.768 601 299.768ZM601 293.688C602.536 293.688 603.773 293.133 604.712 292.024C605.693 290.872 606.419 289.229 606.888 287.096C607.357 284.963 607.592 282.36 607.592 279.288C607.592 276.216 607.357 273.613 606.888 271.48C606.419 269.347 605.693 267.725 604.712 266.616C603.773 265.464 602.536 264.888 601 264.888C599.507 264.888 598.269 265.464 597.288 266.616C596.307 267.725 595.581 269.347 595.112 271.48C594.643 273.613 594.408 276.216 594.408 279.288C594.408 282.36 594.643 284.963 595.112 287.096C595.581 289.229 596.307 290.872 597.288 292.024C598.269 293.133 599.507 293.688 601 293.688Z" fill="black"/>
<path d="M519.576 143.768C516.675 143.768 514.2 142.979 512.152 141.4C510.104 139.779 508.547 137.539 507.48 134.68C506.456 131.821 505.944 128.493 505.944 124.696C505.944 120.003 506.605 116.013 507.928 112.728C509.251 109.4 511.043 106.861 513.304 105.112C515.608 103.32 518.232 102.424 521.176 102.424C522.968 102.424 524.824 102.744 526.744 103.384C528.664 103.981 530.328 105.005 531.736 106.456L527.448 111.256L527 111.704L526.488 111.32C526.445 110.979 526.296 110.723 526.04 110.552C525.827 110.339 525.421 110.04 524.824 109.656C524.568 109.528 524.269 109.443 523.928 109.4C523.629 109.315 523.309 109.251 522.968 109.208C522.669 109.123 522.349 109.08 522.008 109.08C521.411 109.08 520.749 109.165 520.024 109.336C519.341 109.507 518.659 109.805 517.976 110.232C517.336 110.616 516.717 111.213 516.12 112.024C515.565 112.792 515.096 113.795 514.712 115.032C514.328 116.269 514.051 117.805 513.88 119.64C514.477 119 515.16 118.467 515.928 118.04C516.696 117.571 517.507 117.229 518.36 117.016C519.213 116.76 520.067 116.632 520.92 116.632C522.541 116.632 524.035 116.888 525.4 117.4C526.808 117.912 528.024 118.701 529.048 119.768C530.115 120.835 530.925 122.179 531.48 123.8C532.077 125.421 532.376 127.363 532.376 129.624C532.376 132.269 531.821 134.659 530.712 136.792C529.645 138.925 528.152 140.632 526.232 141.912C524.312 143.149 522.093 143.768 519.576 143.768ZM519.768 137.304C520.493 137.304 521.176 137.112 521.816 136.728C522.456 136.344 523.011 135.811 523.48 135.128C523.949 134.445 524.291 133.635 524.504 132.696C524.76 131.757 524.888 130.733 524.888 129.624C524.888 128.472 524.739 127.491 524.44 126.68C524.184 125.827 523.8 125.123 523.288 124.568C522.819 123.971 522.264 123.544 521.624 123.288C520.984 122.989 520.323 122.84 519.64 122.84C519.043 122.84 518.488 122.947 517.976 123.16C517.464 123.331 516.973 123.608 516.504 123.992C516.035 124.333 515.587 124.76 515.16 125.272C514.776 125.741 514.413 126.296 514.072 126.936C514.029 128.557 514.136 130.029 514.392 131.352C514.648 132.632 515.032 133.72 515.544 134.616C516.056 135.512 516.653 136.195 517.336 136.664C518.061 137.091 518.872 137.304 519.768 137.304ZM541.784 130.456L558.808 110.872L560.024 116.248L543 135.768L541.784 130.456ZM551 143.768C548.141 143.768 545.645 142.979 543.512 141.4C541.421 139.821 539.8 137.517 538.648 134.488C537.539 131.416 536.984 127.683 536.984 123.288C536.984 118.936 537.539 115.203 538.648 112.088C539.8 108.973 541.421 106.605 543.512 104.984C545.645 103.32 548.141 102.488 551 102.488C553.859 102.488 556.333 103.32 558.424 104.984C560.557 106.605 562.179 108.973 563.288 112.088C564.44 115.203 565.016 118.936 565.016 123.288C565.016 127.683 564.44 131.416 563.288 134.488C562.179 137.517 560.557 139.821 558.424 141.4C556.333 142.979 553.859 143.768 551 143.768ZM551 137.688C552.536 137.688 553.773 137.133 554.712 136.024C555.693 134.872 556.419 133.229 556.888 131.096C557.357 128.963 557.592 126.36 557.592 123.288C557.592 120.216 557.357 117.613 556.888 115.48C556.419 113.347 555.693 111.725 554.712 110.616C553.773 109.464 552.536 108.888 551 108.888C549.507 108.888 548.269 109.464 547.288 110.616C546.307 111.725 545.581 113.347 545.112 115.48C544.643 117.613 544.408 120.216 544.408 123.288C544.408 126.36 544.643 128.963 545.112 131.096C545.581 133.229 546.307 134.872 547.288 136.024C548.269 137.133 549.507 137.688 551 137.688Z" fill="black"/>
<path d="M304.192 50.768C301.333 50.768 298.752 50.256 296.448 49.232C294.144 48.1653 292.395 46.544 291.2 44.368L296.832 39.76L297.28 39.376L297.664 39.888C297.664 40.2293 297.728 40.5493 297.856 40.848C297.984 41.1467 298.261 41.5733 298.688 42.128C299.413 42.8107 300.224 43.344 301.12 43.728C302.016 44.0693 302.997 44.24 304.064 44.24C304.96 44.24 305.771 44.0693 306.496 43.728C307.264 43.3867 307.925 42.896 308.48 42.256C309.035 41.616 309.461 40.8907 309.76 40.08C310.059 39.2267 310.208 38.3307 310.208 37.392C310.208 36.2827 310.059 35.28 309.76 34.384C309.504 33.488 309.099 32.72 308.544 32.08C308.032 31.3973 307.392 30.8853 306.624 30.544C305.856 30.16 304.96 29.968 303.936 29.968C303.125 29.968 302.336 30.0747 301.568 30.288C300.8 30.4587 300.096 30.7573 299.456 31.184C298.859 31.6107 298.304 32.1653 297.792 32.848L292.864 31.696L294.336 10.128H316.032V16.592H301.12L300.608 24.784C301.035 24.528 301.547 24.2933 302.144 24.08C302.784 23.8667 303.424 23.7173 304.064 23.632C304.747 23.504 305.365 23.44 305.92 23.44C307.712 23.44 309.333 23.7173 310.784 24.272C312.235 24.8267 313.472 25.6587 314.496 26.768C315.563 27.8773 316.373 29.264 316.928 30.928C317.525 32.592 317.824 34.4907 317.824 36.624C317.824 39.5253 317.227 42.0427 316.032 44.176C314.88 46.3093 313.28 47.952 311.232 49.104C309.184 50.2133 306.837 50.768 304.192 50.768ZM326.784 37.456L343.808 17.872L345.024 23.248L328 42.768L326.784 37.456ZM336 50.768C333.141 50.768 330.645 49.9787 328.512 48.4C326.421 46.8213 324.8 44.5173 323.648 41.488C322.539 38.416 321.984 34.6827 321.984 30.288C321.984 25.936 322.539 22.2027 323.648 19.088C324.8 15.9733 326.421 13.6053 328.512 11.984C330.645 10.32 333.141 9.488 336 9.488C338.859 9.488 341.333 10.32 343.424 11.984C345.557 13.6053 347.179 15.9733 348.288 19.088C349.44 22.2027 350.016 25.936 350.016 30.288C350.016 34.6827 349.44 38.416 348.288 41.488C347.179 44.5173 345.557 46.8213 343.424 48.4C341.333 49.9787 338.859 50.768 336 50.768ZM336 44.688C337.536 44.688 338.773 44.1333 339.712 43.024C340.693 41.872 341.419 40.2293 341.888 38.096C342.357 35.9627 342.592 33.36 342.592 30.288C342.592 27.216 342.357 24.6133 341.888 22.48C341.419 20.3467 340.693 18.7253 339.712 17.616C338.773 16.464 337.536 15.888 336 15.888C334.507 15.888 333.269 16.464 332.288 17.616C331.307 18.7253 330.581 20.3467 330.112 22.48C329.643 24.6133 329.408 27.216 329.408 30.288C329.408 33.36 329.643 35.9627 330.112 38.096C330.581 40.2293 331.307 41.872 332.288 43.024C333.269 44.1333 334.507 44.688 336 44.688Z" fill="black"/>
<path d="M106.472 136V126.656H91.368V121.408L108.328 96.128H114.216V120.128H119.528V126.72H114.216V136H106.472ZM99.368 120.256H106.664V108.608L99.368 120.256ZM127.784 123.456L144.808 103.872L146.024 109.248L129 128.768L127.784 123.456ZM137 136.768C134.141 136.768 131.645 135.979 129.512 134.4C127.421 132.821 125.8 130.517 124.648 127.488C123.539 124.416 122.984 120.683 122.984 116.288C122.984 111.936 123.539 108.203 124.648 105.088C125.8 101.973 127.421 99.6053 129.512 97.984C131.645 96.32 134.141 95.488 137 95.488C139.859 95.488 142.333 96.32 144.424 97.984C146.557 99.6053 148.179 101.973 149.288 105.088C150.44 108.203 151.016 111.936 151.016 116.288C151.016 120.683 150.44 124.416 149.288 127.488C148.179 130.517 146.557 132.821 144.424 134.4C142.333 135.979 139.859 136.768 137 136.768ZM137 130.688C138.536 130.688 139.773 130.133 140.712 129.024C141.693 127.872 142.419 126.229 142.888 124.096C143.357 121.963 143.592 119.36 143.592 116.288C143.592 113.216 143.357 110.613 142.888 108.48C142.419 106.347 141.693 104.725 140.712 103.616C139.773 102.464 138.536 101.888 137 101.888C135.507 101.888 134.269 102.464 133.288 103.616C132.307 104.725 131.581 106.347 131.112 108.48C130.643 110.613 130.408 113.216 130.408 116.288C130.408 119.36 130.643 121.963 131.112 124.096C131.581 126.229 132.307 127.872 133.288 129.024C134.269 130.133 135.507 130.688 137 130.688Z" fill="black"/>
</svg>
