<svg width="272" height="272" viewBox="0 0 272 272" fill="none" xmlns="http://www.w3.org/2000/svg">
<path d="M135.746 0C60.7738 0 0 60.7738 0 135.746C0 210.719 60.7738 271.493 135.746 271.493C210.719 271.493 271.493 210.719 271.493 135.746C271.493 60.7738 210.719 0 135.746 0ZM135.746 236.461C80.0848 236.461 35.0313 191.419 35.0313 135.746C35.0313 80.0848 80.0739 35.0313 135.746 35.0313C191.408 35.0313 236.461 80.0739 236.461 135.746C236.461 191.408 191.419 236.461 135.746 236.461ZM135.746 65.6837C97.0531 65.6837 65.6837 97.0531 65.6837 135.746C65.6837 174.439 97.0531 205.809 135.746 205.809C174.439 205.809 205.809 174.439 205.809 135.746C205.809 97.0531 174.439 65.6837 135.746 65.6837ZM135.746 170.778C116.43 170.778 100.715 155.063 100.715 135.746C100.715 116.43 116.43 100.715 135.746 100.715C155.063 100.715 170.778 116.43 170.778 135.746C170.778 155.063 155.063 170.778 135.746 170.778Z" fill="black"/>
</svg>
