<svg width="430" height="430" viewBox="0 0 430 430" fill="none" xmlns="http://www.w3.org/2000/svg">
<path d="M214.922 0C96.195 0 0 96.195 0 214.922C0 333.649 96.195 429.844 214.922 429.844C333.649 429.844 429.844 333.649 429.844 214.922C429.844 96.195 333.649 0 214.922 0ZM214.922 388.246C119.334 388.246 41.5978 310.51 41.5978 214.922C41.5978 119.334 119.334 41.5978 214.922 41.5978C310.51 41.5978 388.246 119.334 388.246 214.922C388.246 310.51 310.51 388.246 214.922 388.246ZM145.592 201.056C160.932 201.056 173.324 188.663 173.324 173.324C173.324 157.985 160.932 145.592 145.592 145.592C130.253 145.592 117.861 157.985 117.861 173.324C117.861 188.663 130.253 201.056 145.592 201.056ZM284.252 201.056C299.591 201.056 311.984 188.663 311.984 173.324C311.984 157.985 299.591 145.592 284.252 145.592C268.913 145.592 256.52 157.985 256.52 173.324C256.52 188.663 268.913 201.056 284.252 201.056ZM287.718 263.973C269.693 285.638 243.087 298.118 214.922 298.118C186.757 298.118 160.152 285.725 142.126 263.973C134.76 255.133 121.587 254.007 112.834 261.286C103.995 268.653 102.868 281.739 110.148 290.578C136.146 321.777 174.364 339.629 214.922 339.629C255.48 339.629 293.698 321.777 319.697 290.578C327.063 281.739 325.85 268.653 317.01 261.286C308.257 254.007 295.085 255.133 287.718 263.973Z" fill="black"/>
</svg>
