<svg width="272" height="191" viewBox="0 0 272 191" fill="none" xmlns="http://www.w3.org/2000/svg">
<path d="M40.7239 81.4478C55.6984 81.4478 67.8731 69.273 67.8731 54.2985C67.8731 39.324 55.6984 27.1493 40.7239 27.1493C25.7494 27.1493 13.5746 39.324 13.5746 54.2985C13.5746 69.273 25.7494 81.4478 40.7239 81.4478ZM230.769 81.4478C245.743 81.4478 257.918 69.273 257.918 54.2985C257.918 39.324 245.743 27.1493 230.769 27.1493C215.794 27.1493 203.619 39.324 203.619 54.2985C203.619 69.273 215.794 81.4478 230.769 81.4478ZM244.343 95.0224H217.194C209.728 95.0224 202.983 98.0343 198.062 102.913C215.158 112.288 227.29 129.213 229.92 149.321H257.918C265.426 149.321 271.493 143.255 271.493 135.746V122.172C271.493 107.197 259.318 95.0224 244.343 95.0224ZM135.746 95.0224C162.005 95.0224 183.257 73.7696 183.257 47.5112C183.257 21.2528 162.005 0 135.746 0C109.488 0 88.2351 21.2528 88.2351 47.5112C88.2351 73.7696 109.488 95.0224 135.746 95.0224ZM168.325 108.597H164.804C155.981 112.839 146.182 115.384 135.746 115.384C125.311 115.384 115.554 112.839 106.688 108.597H103.167C76.1876 108.597 54.2985 130.486 54.2985 157.466V169.683C54.2985 180.924 63.419 190.045 74.6605 190.045H196.832C208.074 190.045 217.194 180.924 217.194 169.683V157.466C217.194 130.486 195.305 108.597 168.325 108.597ZM73.4303 102.913C68.5095 98.0343 61.7646 95.0224 54.2985 95.0224H27.1493C12.1747 95.0224 0 107.197 0 122.172V135.746C0 143.255 6.06616 149.321 13.5746 149.321H41.5299C44.2024 129.213 56.3347 112.288 73.4303 102.913Z" fill="black"/>
</svg>
