<svg width="272" height="242" viewBox="0 0 272 242" fill="none" xmlns="http://www.w3.org/2000/svg">
<path d="M268.437 207.396C277.137 222.476 266.216 241.327 248.84 241.327H22.65C5.24003 241.327 -5.63003 222.447 3.05301 207.396L116.149 11.3051C124.854 -3.78204 146.655 -3.7547 155.343 11.3051L268.437 207.396ZM135.746 166.855C123.772 166.855 114.065 176.562 114.065 188.536C114.065 200.511 123.772 210.218 135.746 210.218C147.721 210.218 157.428 200.511 157.428 188.536C157.428 176.562 147.721 166.855 135.746 166.855ZM115.161 88.9204L118.658 153.023C118.821 156.022 121.302 158.371 124.305 158.371H147.187C150.191 158.371 152.671 156.022 152.835 153.023L156.331 88.9204C156.508 85.6804 153.928 82.956 150.684 82.956H120.809C117.564 82.956 114.985 85.6804 115.161 88.9204Z" fill="black"/>
</svg>
