<svg width="272" height="191" viewBox="0 0 272 191" fill="none" xmlns="http://www.w3.org/2000/svg">
<path d="M0 68.3437C0 30.5983 30.5986 0 68.3437 0H121.7C159.445 0 190.043 30.5983 190.043 68.3437C190.043 106.089 159.445 136.688 121.7 136.688H81.4471V169.682C81.4471 169.682 0 153.184 0 68.3437Z" fill="#333333"/>
<path fill-rule="evenodd" clip-rule="evenodd" d="M138.986 148.417C148.811 157.851 162.153 163.648 176.848 163.648H196.833V190.043C196.833 190.043 271.493 176.846 271.493 108.974C271.493 78.777 247.014 54.2981 216.818 54.2981H201.821C202.993 58.7519 203.617 63.4276 203.617 68.25C203.617 107.58 175.931 140.444 138.986 148.417Z" fill="#333333"/>
</svg>
