<svg width="406" height="464" viewBox="0 0 406 464" fill="none" xmlns="http://www.w3.org/2000/svg">
<path d="M115.832 0V57.9159H173.748V59.6534C75.2907 73.5532 0 158.69 0 260.622C0 372.399 90.928 463.327 202.706 463.327C314.483 463.327 405.411 372.399 405.411 260.622C405.411 234.559 399.62 210.235 390.932 188.227L338.229 210.235C344.6 227.03 347.495 243.247 347.495 261.201C347.495 341.704 283.209 405.991 202.706 405.991C122.203 405.991 57.9159 341.704 57.9159 261.201C57.9159 180.698 122.203 116.411 202.706 116.411C220.08 116.411 236.876 119.307 253.672 125.678L273.363 71.2366C260.042 66.6033 246.143 64.2867 231.664 61.97V58.4951H289.58V0.579159H115.832V0ZM405.411 67.1825C405.411 67.1825 194.018 229.926 183.014 240.93C172.01 252.513 172.01 269.309 183.014 280.892C194.018 292.475 211.393 292.475 222.976 280.892C234.559 269.309 405.991 67.1825 405.991 67.1825H405.411Z" fill="black"/>
</svg>
